<svg xmlns="http://www.w3.org/2000/svg" fill="none" viewBox="0 0 48 38" height="38" width="48">
<path fill="url(#paint0_linear_462_214)" d="M39.2739 0H4.60271C3.8296 0 3.20215 0.60613 3.20215 1.35297C3.20215 2.09981 3.8296 2.70594 4.60271 2.70594H39.1573C41.6694 2.70594 44.2599 4.68019 44.2599 7.10471C44.2599 9.52922 41.9024 11.5035 39.3904 11.5035H30.9332L24.0716 24.1261C26.7898 24.1261 29.2839 22.6693 30.5478 20.3443L33.8823 14.2094H39.4285C44.7753 14.2094 47.9977 11.0229 47.9977 7.10471C47.9977 3.18651 44.8537 0 39.2739 0Z"></path>
<path fill="#E60012" d="M3.03826 7.34284H7.10548C7.87859 7.34284 8.50604 6.73671 8.50604 5.98987C8.50604 5.24303 7.87859 4.6369 7.10548 4.6369H3.03826C2.26515 4.6369 1.6377 5.24303 1.6377 5.98987C1.6377 6.73671 2.26515 7.34284 3.03826 7.34284Z"></path>
<path fill="url(#paint1_linear_462_214)" d="M0.742188 24.1261C0.742188 24.8729 1.36964 25.4791 2.14275 25.4791H12.2649L13.7349 22.7731H2.14275C1.36964 22.7731 0.742188 23.3793 0.742188 24.1261Z"></path>
<path fill="url(#paint2_linear_462_214)" d="M15.9281 18.2402H8.17009C7.39698 18.2402 6.76953 18.8463 6.76953 19.5931C6.76953 20.34 7.39698 20.9461 8.17009 20.9461H14.727L16.1858 18.264C16.1029 18.2488 16.0155 18.2402 15.9281 18.2402Z"></path>
<path fill="url(#paint3_linear_462_214)" d="M3.03223 15.058C3.03223 15.8048 3.65968 16.411 4.43279 16.411H17.1947L18.6602 13.7137C18.6087 13.7093 18.5594 13.705 18.5056 13.705H4.43279C3.65968 13.705 3.03223 14.3111 3.03223 15.058Z"></path>
<path fill="url(#paint4_linear_462_214)" d="M21.1296 9.17206H9.17888C8.40577 9.17206 7.77832 9.77819 7.77832 10.525C7.77832 11.2719 8.40577 11.878 9.17888 11.878H19.6596L21.1296 9.17206Z"></path>
<path fill="url(#paint5_linear_462_214)" d="M33.1941 7.34281L31.9616 9.62662H39.4552V9.6158C39.5314 9.62229 39.6098 9.62662 39.6882 9.62662C41.1112 9.62662 42.2697 8.50744 42.2697 7.13283C42.2697 5.75821 41.2232 4.7516 39.8966 4.6477H39.8921C39.8249 4.64337 39.7577 4.63904 39.6882 4.63904H11.5851C10.812 4.63904 10.1846 5.24517 10.1846 5.99201C10.1846 6.73884 10.812 7.34497 11.5851 7.34497H26.7358L16.0669 26.9728H20.0221L30.691 7.34497H33.1963L33.1941 7.34281Z"></path>
<path fill="white" d="M0 32.9128H2.03025V38H3.24706V32.9128H5.27731V31.7395H0V32.9128Z"></path>
<path fill="white" d="M31.292 32.0902V32.9128V34.2831V35.4564V36.8267V38H32.5066H36.222V36.8267H32.5066V35.4564H35.7447V34.2831H32.5066V32.9128H36.222V31.7395H31.292V32.0902Z"></path>
<path fill="white" d="M14.1781 32.3045L11.5137 38.0021H12.838L13.4162 36.6752H16.8649L17.4386 37.9892L18.7966 37.9827L16.1411 32.3045C15.7602 31.4884 14.5613 31.4884 14.1781 32.3045ZM13.9271 35.4997L14.7899 33.5233C14.9198 33.2224 15.3613 33.2224 15.4913 33.5233L16.354 35.4997H13.9294H13.9271Z"></path>
<path fill="white" d="M25.2236 31.7763H22.1895V38H23.404V36.1123H25.2214C26.4606 36.1123 27.4668 35.1404 27.4668 33.9432C27.4668 32.7461 26.4606 31.7742 25.2214 31.7742L25.2236 31.7763ZM25.004 35.0386H23.404V32.8522H25.004C25.6292 32.8522 26.1357 33.3414 26.1357 33.9454C26.1357 34.5494 25.6292 35.0386 25.004 35.0386Z"></path>
<path fill="white" d="M43.5001 34.7572L45.8866 31.7395H44.6228C44.4569 31.7395 44.3001 31.8153 44.197 31.943L42.7359 33.7917L41.2749 31.943C41.174 31.8153 41.0172 31.7395 40.8491 31.7395H39.5852L41.9718 34.7572L39.4082 38H40.6721C40.8379 38 40.9948 37.9242 41.0978 37.7965L42.7382 35.7226L44.3785 37.7965C44.4793 37.9242 44.6362 38 44.8043 38H46.0681L43.5046 34.7572H43.5001Z"></path>
<path fill="white" d="M10.761 34.2831H6.73633V35.4564H10.761V34.2831Z"></path>
<defs>
<linearGradient gradientUnits="userSpaceOnUse" y2="12.062" x2="47.9999" y1="12.062" x1="3.20215" id="paint0_linear_462_214">
<stop stop-color="#E60012"></stop>
<stop stop-color="#CF000B" offset="0.35"></stop>
<stop stop-color="#BC0006" offset="0.73"></stop>
<stop stop-color="#B60005" offset="1"></stop>
</linearGradient>
<linearGradient gradientUnits="userSpaceOnUse" y2="24.1261" x2="13.7371" y1="24.1261" x1="0.742188" id="paint1_linear_462_214">
<stop stop-color="#E60012"></stop>
<stop stop-color="#CF000B" offset="0.35"></stop>
<stop stop-color="#BC0006" offset="0.73"></stop>
<stop stop-color="#B60005" offset="1"></stop>
</linearGradient>
<linearGradient gradientUnits="userSpaceOnUse" y2="19.5931" x2="16.188" y1="19.5931" x1="6.77177" id="paint2_linear_462_214">
<stop stop-color="#E60012"></stop>
<stop stop-color="#CF000B" offset="0.35"></stop>
<stop stop-color="#BC0006" offset="0.73"></stop>
<stop stop-color="#B60005" offset="1"></stop>
</linearGradient>
<linearGradient gradientUnits="userSpaceOnUse" y2="15.058" x2="18.6602" y1="15.058" x1="3.03223" id="paint3_linear_462_214">
<stop stop-color="#E60012"></stop>
<stop stop-color="#CF000B" offset="0.35"></stop>
<stop stop-color="#BC0006" offset="0.73"></stop>
<stop stop-color="#B60005" offset="1"></stop>
</linearGradient>
<linearGradient gradientUnits="userSpaceOnUse" y2="10.525" x2="21.1296" y1="10.525" x1="7.77832" id="paint4_linear_462_214">
<stop stop-color="#E60012"></stop>
<stop stop-color="#CF000B" offset="0.35"></stop>
<stop stop-color="#BC0006" offset="0.73"></stop>
<stop stop-color="#B60005" offset="1"></stop>
</linearGradient>
<linearGradient gradientUnits="userSpaceOnUse" y2="15.8048" x2="42.272" y1="15.8048" x1="10.1846" id="paint5_linear_462_214">
<stop stop-color="#E60012"></stop>
<stop stop-color="#CF000B" offset="0.35"></stop>
<stop stop-color="#BC0006" offset="0.73"></stop>
<stop stop-color="#B60005" offset="1"></stop>
</linearGradient>
</defs>
</svg>
